solid OpenSCAD_Model
  facet normal 0.34202 -0.939693 0
    outer loop
      vertex 80.6189 0 0
      vertex 100 7.05416 25
      vertex 80.6189 0 25
    endloop
  endfacet
  facet normal 0.34202 -0.939693 0
    outer loop
      vertex 100 7.05416 25
      vertex 80.6189 0 0
      vertex 100 7.05416 0
    endloop
  endfacet
  facet normal 0.34202 0.939693 -0
    outer loop
      vertex 100 27.9458 0
      vertex 80.6189 35 25
      vertex 100 27.9458 25
    endloop
  endfacet
  facet normal 0.34202 0.939693 0
    outer loop
      vertex 80.6189 35 25
      vertex 100 27.9458 0
      vertex 80.6189 35 0
    endloop
  endfacet
  facet normal -1 0 0
    outer loop
      vertex 0 0 0
      vertex 0 35 25
      vertex 0 35 0
    endloop
  endfacet
  facet normal -1 -0 0
    outer loop
      vertex 0 35 25
      vertex 0 0 0
      vertex 0 0 25
    endloop
  endfacet
  facet normal 0 0 1
    outer loop
      vertex 80.6189 35 25
      vertex 100 7.05416 25
      vertex 100 27.9458 25
    endloop
  endfacet
  facet normal 0 0 1
    outer loop
      vertex 80.6189 35 25
      vertex 80.6189 0 25
      vertex 100 7.05416 25
    endloop
  endfacet
  facet normal -0 0 1
    outer loop
      vertex 0 35 25
      vertex 80.6189 0 25
      vertex 80.6189 35 25
    endloop
  endfacet
  facet normal 0 0 1
    outer loop
      vertex 80.6189 0 25
      vertex 0 35 25
      vertex 0 0 25
    endloop
  endfacet
  facet normal 1 -0 0
    outer loop
      vertex 100 7.05416 25
      vertex 100 27.9458 0
      vertex 100 27.9458 25
    endloop
  endfacet
  facet normal 1 0 0
    outer loop
      vertex 100 27.9458 0
      vertex 100 7.05416 25
      vertex 100 7.05416 0
    endloop
  endfacet
  facet normal 0 1 -0
    outer loop
      vertex 80.6189 35 0
      vertex 0 35 25
      vertex 80.6189 35 25
    endloop
  endfacet
  facet normal 0 1 0
    outer loop
      vertex 0 35 25
      vertex 80.6189 35 0
      vertex 0 35 0
    endloop
  endfacet
  facet normal 0 0 -1
    outer loop
      vertex 80.6189 0 0
      vertex 100 27.9458 0
      vertex 100 7.05416 0
    endloop
  endfacet
  facet normal 0 0 -1
    outer loop
      vertex 80.6189 0 0
      vertex 80.6189 35 0
      vertex 100 27.9458 0
    endloop
  endfacet
  facet normal 0 0 -1
    outer loop
      vertex 0 0 0
      vertex 80.6189 35 0
      vertex 80.6189 0 0
    endloop
  endfacet
  facet normal -0 0 -1
    outer loop
      vertex 80.6189 35 0
      vertex 0 0 0
      vertex 0 35 0
    endloop
  endfacet
  facet normal 0 -1 0
    outer loop
      vertex 0 0 0
      vertex 80.6189 0 25
      vertex 0 0 25
    endloop
  endfacet
  facet normal 0 -1 -0
    outer loop
      vertex 80.6189 0 25
      vertex 0 0 0
      vertex 80.6189 0 0
    endloop
  endfacet
endsolid OpenSCAD_Model
